<?xml version="1.0" standalone="no"?><!DOCTYPE svg PUBLIC "-//W3C//DTD SVG 1.1//EN" "http://www.w3.org/Graphics/SVG/1.1/DTD/svg11.dtd"><svg class="icon" height="512" viewBox="0 0 1024 1024" version="1.1" xmlns="http://www.w3.org/2000/svg"><path d="M675.75005 732.067973c82.741107-96.58578 162.908352-233.022179 162.908352-384.524255C838.658402 160.583748 687.107558 9.031097 500.169263 9.031097 313.207486 9.031097 161.656642 160.583748 161.656642 347.543718c0 151.502076 80.170857 287.942088 162.915577 384.529674-78.3538 27.402155-128.72023 73.032678-128.72023 125.665913 0 85.753881 133.672884 152.936214 304.315467 152.936214 170.640778 0 304.315468-67.180527 304.315468-152.936214 0.001806-52.635041-50.371848-98.269176-128.732874-125.671332z m-175.580787-536.895123c84.131896 0 152.331131 68.220909 152.33113 152.372674 0 84.110222-68.199234 152.331131-152.33113 152.331131-84.153571 0-152.350999-68.222715-152.351-152.331131-0.001806-84.151765 68.197428-152.372674 152.351-152.372674z m0 771.172625c-153.217985 0-259.987229-57.248126-259.98723-108.607977 0-33.108003 44.371587-68.654402 116.938261-89.745626 66.22323 69.136662 127.492001 110.22093 143.050775 110.22093 15.55155 0 76.814901-41.086074 143.036325-110.224542 72.575704 21.089418 116.95271 56.641236 116.95271 89.749238-0.001806 51.35985-106.772857 108.607976-259.990841 108.607977z" /></svg>